name rise30.6535peak61.5555fall82.9339.mot
datacolumns 19
datarows 27
range 7.05497400000000 7.09830300000000
endheader
time	ground_force1_vx	ground_force1_vy	ground_force1_vz	ground_force1_px	ground_force1_py	ground_force1_pz	ground_force2_vx	ground_force2_vy	ground_force2_vz	ground_force2_px	ground_force2_py	ground_force2_pz	ground_torque1_x	ground_torque1_y	ground_torque1_z	ground_torque2_x	ground_torque2_y	ground_torque2_z	
7.05497400000000	-0.45440200000000	708.86816899999997	46.53388100000000	0.19947100000000	0.00000000000000	0.14093900000000	0.00000000000000	0.00000000000000	0.00000000000000	0.00000000000000	0.00000000000000	0.00000000000000	0.00000000000000	19.04404800000000	0.00000000000000	0.00000000000000	0.00000000000000	0.00000000000000	
7.05664000000000	-1.08726400000000	709.90004599999997	46.50960300000000	0.19833000000000	0.00000000000000	0.14094100000000	0.00000000000000	0.00000000000000	0.00000000000000	0.00000000000000	0.00000000000000	0.00000000000000	0.00000000000000	19.12534300000000	0.00000000000000	0.00000000000000	0.00000000000000	0.00000000000000	
7.05829800000000	-1.72971400000000	710.95494599999995	46.49027800000000	0.19717200000000	0.00000000000000	0.14094400000000	0.00000000000000	0.00000000000000	0.00000000000000	0.00000000000000	0.00000000000000	0.00000000000000	0.00000000000000	19.21080700000000	0.00000000000000	0.00000000000000	0.00000000000000	0.00000000000000	
7.05997000000000	-2.38164600000000	712.03247599999997	46.47596400000000	0.19599800000000	0.00000000000000	0.14095000000000	0.00000000000000	0.00000000000000	0.00000000000000	0.00000000000000	0.00000000000000	0.00000000000000	0.00000000000000	19.30043200000000	0.00000000000000	0.00000000000000	0.00000000000000	0.00000000000000	
7.06163700000000	-3.04292000000000	713.13227099999995	46.46672100000000	0.19480800000000	0.00000000000000	0.14095900000000	0.00000000000000	0.00000000000000	0.00000000000000	0.00000000000000	0.00000000000000	0.00000000000000	0.00000000000000	19.39420400000000	0.00000000000000	0.00000000000000	0.00000000000000	0.00000000000000	
7.06330400000000	-3.71336000000000	714.25398299999995	46.46260400000000	0.19360400000000	0.00000000000000	0.14096900000000	0.00000000000000	0.00000000000000	0.00000000000000	0.00000000000000	0.00000000000000	0.00000000000000	0.00000000000000	19.49210300000000	0.00000000000000	0.00000000000000	0.00000000000000	0.00000000000000	
7.06497200000000	-4.39275400000000	715.39728900000000	46.46367000000000	0.19238700000000	0.00000000000000	0.14098200000000	0.00000000000000	0.00000000000000	0.00000000000000	0.00000000000000	0.00000000000000	0.00000000000000	0.00000000000000	19.59410400000000	0.00000000000000	0.00000000000000	0.00000000000000	0.00000000000000	
7.06663500000000	-5.08085700000000	716.56188199999997	46.46997400000000	0.19115700000000	0.00000000000000	0.14099700000000	0.00000000000000	0.00000000000000	0.00000000000000	0.00000000000000	0.00000000000000	0.00000000000000	0.00000000000000	19.70017400000000	0.00000000000000	0.00000000000000	0.00000000000000	0.00000000000000	
7.06830500000000	-5.77738900000000	717.74747100000002	46.48156600000000	0.18991600000000	0.00000000000000	0.14101500000000	0.00000000000000	0.00000000000000	0.00000000000000	0.00000000000000	0.00000000000000	0.00000000000000	0.00000000000000	19.81027500000000	0.00000000000000	0.00000000000000	0.00000000000000	0.00000000000000	
7.06997200000000	-6.48203500000000	718.95377900000005	46.49849700000000	0.18866500000000	0.00000000000000	0.14103400000000	0.00000000000000	0.00000000000000	0.00000000000000	0.00000000000000	0.00000000000000	0.00000000000000	0.00000000000000	19.92435800000000	0.00000000000000	0.00000000000000	0.00000000000000	0.00000000000000	
7.07163200000000	-7.19445100000000	720.18053999999995	46.52081200000000	0.18740400000000	0.00000000000000	0.14105600000000	0.00000000000000	0.00000000000000	0.00000000000000	0.00000000000000	0.00000000000000	0.00000000000000	0.00000000000000	20.04237000000000	0.00000000000000	0.00000000000000	0.00000000000000	0.00000000000000	
7.07330700000000	-7.91425900000000	721.42749600000002	46.54855400000000	0.18613700000000	0.00000000000000	0.14108000000000	0.00000000000000	0.00000000000000	0.00000000000000	0.00000000000000	0.00000000000000	0.00000000000000	0.00000000000000	20.16424800000000	0.00000000000000	0.00000000000000	0.00000000000000	0.00000000000000	
7.07496800000000	-8.64105400000000	722.69439599999998	46.58176400000000	0.18486300000000	0.00000000000000	0.14110600000000	0.00000000000000	0.00000000000000	0.00000000000000	0.00000000000000	0.00000000000000	0.00000000000000	0.00000000000000	20.28992200000000	0.00000000000000	0.00000000000000	0.00000000000000	0.00000000000000	
7.07663900000000	-9.37440100000000	723.98099300000001	46.62047600000000	0.18358500000000	0.00000000000000	0.14113400000000	0.00000000000000	0.00000000000000	0.00000000000000	0.00000000000000	0.00000000000000	0.00000000000000	0.00000000000000	20.41931100000000	0.00000000000000	0.00000000000000	0.00000000000000	0.00000000000000	
7.07830300000000	-10.11383800000000	725.28704000000005	46.66472200000000	0.18230400000000	0.00000000000000	0.14116300000000	0.00000000000000	0.00000000000000	0.00000000000000	0.00000000000000	0.00000000000000	0.00000000000000	0.00000000000000	20.55232600000000	0.00000000000000	0.00000000000000	0.00000000000000	0.00000000000000	
7.07997100000000	-10.85887600000000	726.61229200000002	46.71453100000000	0.18102200000000	0.00000000000000	0.14119500000000	0.00000000000000	0.00000000000000	0.00000000000000	0.00000000000000	0.00000000000000	0.00000000000000	0.00000000000000	20.68887100000000	0.00000000000000	0.00000000000000	0.00000000000000	0.00000000000000	
7.08163400000000	-11.60900500000000	727.95649500000002	46.76992500000000	0.17974000000000	0.00000000000000	0.14122800000000	0.00000000000000	0.00000000000000	0.00000000000000	0.00000000000000	0.00000000000000	0.00000000000000	0.00000000000000	20.82883700000000	0.00000000000000	0.00000000000000	0.00000000000000	0.00000000000000	
7.08330600000000	-12.36369000000000	729.31939299999999	46.83092200000000	0.17846000000000	0.00000000000000	0.14126200000000	0.00000000000000	0.00000000000000	0.00000000000000	0.00000000000000	0.00000000000000	0.00000000000000	0.00000000000000	20.97210900000000	0.00000000000000	0.00000000000000	0.00000000000000	0.00000000000000	
7.08497400000000	-13.12237600000000	730.70072100000004	46.89753700000000	0.17718300000000	0.00000000000000	0.14129800000000	0.00000000000000	0.00000000000000	0.00000000000000	0.00000000000000	0.00000000000000	0.00000000000000	0.00000000000000	21.11856000000000	0.00000000000000	0.00000000000000	0.00000000000000	0.00000000000000	
7.08663200000000	-13.88449000000000	732.10019899999998	46.96977700000000	0.17591200000000	0.00000000000000	0.14133600000000	0.00000000000000	0.00000000000000	0.00000000000000	0.00000000000000	0.00000000000000	0.00000000000000	0.00000000000000	21.26805400000000	0.00000000000000	0.00000000000000	0.00000000000000	0.00000000000000	
7.08830100000000	-14.64944000000000	733.51753599999995	47.04764700000000	0.17464700000000	0.00000000000000	0.14137400000000	0.00000000000000	0.00000000000000	0.00000000000000	0.00000000000000	0.00000000000000	0.00000000000000	0.00000000000000	21.42044700000000	0.00000000000000	0.00000000000000	0.00000000000000	0.00000000000000	
7.08997000000000	-15.41662100000000	734.95242499999995	47.13114500000000	0.17339000000000	0.00000000000000	0.14141300000000	0.00000000000000	0.00000000000000	0.00000000000000	0.00000000000000	0.00000000000000	0.00000000000000	0.00000000000000	21.57558200000000	0.00000000000000	0.00000000000000	0.00000000000000	0.00000000000000	
7.09163200000000	-16.18541200000000	736.40453800000000	47.22026400000000	0.17214300000000	0.00000000000000	0.14145400000000	0.00000000000000	0.00000000000000	0.00000000000000	0.00000000000000	0.00000000000000	0.00000000000000	0.00000000000000	21.73329500000000	0.00000000000000	0.00000000000000	0.00000000000000	0.00000000000000	
7.09330000000000	-16.95518200000000	737.87352699999997	47.31499100000000	0.17090700000000	0.00000000000000	0.14149500000000	0.00000000000000	0.00000000000000	0.00000000000000	0.00000000000000	0.00000000000000	0.00000000000000	0.00000000000000	21.89341200000000	0.00000000000000	0.00000000000000	0.00000000000000	0.00000000000000	
7.09497300000000	-17.72529200000000	739.35901999999999	47.41530800000000	0.16968300000000	0.00000000000000	0.14153600000000	0.00000000000000	0.00000000000000	0.00000000000000	0.00000000000000	0.00000000000000	0.00000000000000	0.00000000000000	22.05575100000000	0.00000000000000	0.00000000000000	0.00000000000000	0.00000000000000	
7.09663600000000	-18.49509200000000	740.86061900000004	47.52119300000000	0.16847300000000	0.00000000000000	0.14157800000000	0.00000000000000	0.00000000000000	0.00000000000000	0.00000000000000	0.00000000000000	0.00000000000000	0.00000000000000	22.22011900000000	0.00000000000000	0.00000000000000	0.00000000000000	0.00000000000000	
7.09830300000000	-19.26392900000000	742.37789799999996	47.63261500000000	0.16727800000000	0.00000000000000	0.14162000000000	0.00000000000000	0.00000000000000	0.00000000000000	0.00000000000000	0.00000000000000	0.00000000000000	0.00000000000000	22.38631600000000	0.00000000000000	0.00000000000000	0.00000000000000	0.00000000000000	
